<svg width="253" height="225" viewBox="0 0 253 225" fill="none" xmlns="http://www.w3.org/2000/svg">
<path id="Blob-bg" d="M129.586 4.42154C154.959 3.00905 180.904 4.67734 201.095 16.8384C221.141 28.9122 232.426 49.7767 240.892 71.3072C248.737 91.2589 251.427 112.419 246.566 132.775C241.907 152.285 229.279 169.322 213.731 184.586C198.429 199.608 180.835 212.382 159.704 217.934C138.471 223.513 116.083 220.632 93.646 216.024C92.2922 215.746 90.9376 215.47 89.5836 215.194C78.8149 213.002 68.0837 210.818 58.0676 207.54C46.83 203.861 36.832 198.905 29.0763 191.33C13.2257 175.85 9.38186 153.525 6.25317 130.957C3.16726 108.697 1.79406 86.6183 12.0029 67.7023C22.1864 48.8331 42.4086 36.3052 63.6807 24.8007C84.1983 13.7044 106.103 5.72879 129.586 4.42154Z" stroke="#5D3F27" stroke-width="8"/>
</svg>
