<svg width="815" height="1112" viewBox="0 0 815 1112" fill="none" xmlns="http://www.w3.org/2000/svg">
<g clip-path="url(#clip0)">
<path d="M745.858 326.923C732.479 311.429 714.787 299.086 694.649 291.19C689.42 289.152 684.53 287.558 679.877 286.298C679.402 266.838 673.323 247.674 662.117 233.107C649.62 216.872 631.86 207.42 611.587 205.789C592.774 9.66918 423.798 3.70144 422.066 3.66437C417.244 2.70064 414.119 5.59184 411.471 9.00197C408.822 12.4121 407.769 16.9713 408.482 21.3452C408.992 24.3105 419.485 93.6993 310.716 118.312C290.647 122.834 275.094 137.92 267.318 158.195C243.818 159.604 182.32 168.908 141.604 228.696C137.155 235.294 138.378 244.598 144.388 249.453C146.833 251.455 149.686 252.382 152.504 252.382C156.681 252.382 160.756 250.306 163.439 246.414C193.424 202.379 238.928 191.259 261.918 188.479C262.801 207.531 271.087 225.212 285.417 237.11C313.874 260.759 349.497 266.059 377.343 267.987C394.118 269.21 410.146 269.803 425.699 269.803C443.018 269.803 459.692 269.062 475.992 267.542C497.317 265.614 518.405 262.13 538.713 257.126C549.919 254.383 561.125 251.084 572.705 247.081C587.952 242.151 598.174 238.815 604.524 234.997C605.543 234.96 606.459 234.886 607.75 234.886C625.001 235.516 635.494 244.598 641.301 252.122C650.368 263.872 654.544 280.367 652.473 296.38C651.284 306.573 646.259 325.218 626.053 335.745C601.264 348.903 572.841 360.209 541.973 369.105L537.898 370.143C530.698 371.959 523.635 373.775 516.266 375.295C417.244 396.571 332.042 401.278 255.874 389.64C213.867 383.264 175.053 370.624 140.551 352.128C135.865 349.608 132.978 344.455 133.42 339.303C134.914 320.584 138.344 303.423 143.879 286.705C146.426 278.996 142.792 270.507 135.729 267.727C128.734 264.947 120.923 268.913 118.342 276.623C112.298 294.786 108.63 313.505 106.83 333.446C92.8736 339.229 66.9634 353.277 50.7992 382.671C36.1632 409.322 33.1409 441.644 41.9022 479.007C42.4795 481.454 56.742 534.051 112.128 555.958L179.399 843.261C185.376 868.356 206.159 885.851 229.929 885.851H585.473C609.312 885.851 630.06 868.096 635.969 842.742C641.063 820.54 647.176 794.296 653.933 766.2C655.869 758.305 651.522 750.187 644.255 748.111C636.784 745.999 629.551 750.78 627.683 758.675C620.858 786.883 614.745 813.275 609.652 835.477C606.765 847.858 597.053 856.198 585.473 856.198H544.316L587.035 563.705L649.247 564.038C649.485 564.038 649.756 564.038 649.96 564.038C658.008 564.038 665.853 563.037 673.561 561.629C664.97 599.289 652.133 654.147 639.195 709.08C637.328 717.012 641.708 725.13 648.975 727.132C650.096 727.465 651.25 727.613 652.371 727.613C658.45 727.613 663.951 723.165 665.547 716.456C680.523 652.665 695.498 588.836 703.716 552.103C727.521 541.057 747.624 522.857 760.46 498.838C768.78 483.01 774.214 465.441 776.625 446.648C782.465 400.76 770.988 356.02 745.858 326.923ZM563.876 219.059C553.62 222.617 543.229 225.694 532.736 228.251C513.651 232.922 493.82 236.221 473.75 238.074C444.105 240.78 413.169 240.891 379.108 238.482C355.066 236.74 324.537 232.366 301.887 213.536C291.292 204.751 286.844 190.74 289.866 176.099C292.277 164.534 300.461 150.893 316.218 147.335C415.682 124.872 433.408 65.4916 435.649 34.6892C473.241 40.2862 573.044 68.6052 585.269 211.645C581.16 213.239 574.539 215.574 563.876 219.059ZM205.751 835.885L141.468 561.369L227.926 561.814L268.472 856.198H229.929C218.553 856.198 208.57 847.821 205.751 835.885ZM337.272 562.37L352.655 856.161H295.944L255.398 561.962L337.272 562.37ZM364.506 562.518L448.112 562.963L435.242 856.161H379.889L364.506 562.518ZM516.843 856.198H462.442L475.312 563.112L559.597 563.556L516.843 856.198ZM749.662 442.534C747.76 457.546 743.447 471.52 736.52 484.753C726.502 503.471 710.066 516.778 690.574 525.044C687.824 525.341 685.345 526.304 683.375 527.935C672.712 531.531 661.472 534.125 649.383 534.311L463.427 533.495C463.291 533.495 463.155 533.384 463.019 533.384C462.816 533.384 462.68 533.495 462.476 533.495L351.229 533.013C350.583 532.902 350.006 532.643 349.327 532.606C348.852 532.643 348.444 532.902 347.969 533.013L239.879 532.532C239.132 532.532 238.385 532.272 237.604 532.42C237.502 532.42 237.434 532.532 237.298 532.532L130.058 532.05C81.0561 519.299 68.5934 473.151 68.152 471.446C61.3263 442.385 63.2959 417.736 73.9249 398.165C84.5199 378.705 101.669 368.03 112.603 362.877C116.475 369.401 121.772 375.072 128.496 378.742C165.68 398.684 207.279 412.25 252.138 419.033C280.459 423.37 309.935 425.52 340.769 425.52C396.155 425.52 455.99 418.514 521.462 404.466C529.136 402.872 536.505 400.982 544.078 399.054L548.527 397.943C581.5 388.416 611.553 376.481 637.837 362.507C656.31 352.906 669.35 336.412 675.667 316.359C678.927 317.322 681.745 317.656 685.447 319.102C701.577 325.403 715.635 335.152 726.061 347.272C745.621 369.846 754.45 405.467 749.662 442.534Z" fill="#5D3F27"/>
<path d="M692.185 385.727C683.9 385.727 677.176 393.066 677.176 402.11C677.176 411.154 683.9 418.493 692.185 418.493C700.471 418.493 707.195 411.154 707.195 402.11C707.195 393.066 700.471 385.727 692.185 385.727Z" fill="#5D3F27"/>
<path d="M580.76 466.664C572.474 466.664 565.75 474.003 565.75 483.048C565.75 492.092 572.474 499.431 580.76 499.431C589.045 499.431 595.769 492.092 595.769 483.048C595.769 474.003 589.045 466.664 580.76 466.664Z" fill="#5D3F27"/>
<path d="M484.056 464.392C492.346 464.392 499.066 457.057 499.066 448.008C499.066 438.96 492.346 431.625 484.056 431.625C475.767 431.625 469.047 438.96 469.047 448.008C469.047 457.057 475.767 464.392 484.056 464.392Z" fill="#5D3F27"/>
<path d="M333.9 461.887C325.614 461.887 318.891 469.226 318.891 478.27C318.891 487.314 325.614 494.654 333.9 494.654C342.186 494.654 348.91 487.314 348.91 478.27C348.91 469.226 342.186 461.887 333.9 461.887Z" fill="#5D3F27"/>
<path d="M175.115 461.887C166.829 461.887 160.105 469.226 160.105 478.27C160.105 487.314 166.829 494.654 175.115 494.654C183.401 494.654 190.125 487.314 190.125 478.27C190.125 469.226 183.401 461.887 175.115 461.887Z" fill="#5D3F27"/>
<path d="M229.39 295.977C229.39 286.933 222.667 279.594 214.381 279.594C206.095 279.594 199.371 286.933 199.371 295.977C199.371 305.021 206.095 312.361 214.381 312.361C222.667 312.361 229.39 305.021 229.39 295.977Z" fill="#5D3F27"/>
<path d="M311.217 341.033C319.506 341.033 326.226 333.697 326.226 324.649C326.226 315.601 319.506 308.266 311.217 308.266C302.927 308.266 296.207 315.601 296.207 324.649C296.207 333.697 302.927 341.033 311.217 341.033Z" fill="#5D3F27"/>
<path d="M471.592 337.552C479.881 337.552 486.601 330.217 486.601 321.169C486.601 312.12 479.881 304.785 471.592 304.785C463.302 304.785 456.582 312.12 456.582 321.169C456.582 330.217 463.302 337.552 471.592 337.552Z" fill="#5D3F27"/>
<path d="M621.636 281.934C621.636 272.89 614.913 265.551 606.627 265.551C598.341 265.551 591.617 272.89 591.617 281.934C591.617 290.979 598.341 298.318 606.627 298.318C614.913 298.318 621.636 290.979 621.636 281.934Z" fill="#5D3F27"/>
<path d="M499.842 107.727C491.556 107.727 484.832 115.066 484.832 124.11C484.832 133.154 491.556 140.494 499.842 140.494C508.127 140.494 514.851 133.154 514.851 124.11C514.851 115.066 508.127 107.727 499.842 107.727Z" fill="#5D3F27"/>
<path d="M407.916 205.505C416.205 205.505 422.925 198.17 422.925 189.122C422.925 180.073 416.205 172.738 407.916 172.738C399.626 172.738 392.906 180.073 392.906 189.122C392.906 198.17 399.626 205.505 407.916 205.505Z" fill="#5D3F27"/>
</g>
<defs>
<clipPath id="clip0">
<rect width="815" height="1112" fill="white"/>
</clipPath>
</defs>
</svg>
