<svg width="1373" height="1294" viewBox="0 0 1373 1294" fill="none" xmlns="http://www.w3.org/2000/svg">
<path d="M83.663 531.194C128.516 413.851 193.026 309.969 282.951 222.259C381.798 125.846 486.683 23.4958 623.473 4.68066C766.017 -14.9258 913.198 33.703 1028.57 119.701C1139.96 202.728 1185.87 338.679 1242.03 465.753C1301.88 601.163 1399.39 737.151 1365.12 881.172C1330.59 1026.3 1196.43 1125.73 1067.25 1200.33C951.75 1267.03 817.045 1264.77 684.021 1274.49C546.869 1284.52 404.385 1320.3 281.907 1257.75C152.995 1191.91 50.0526 1070.91 11.9472 931.253C-24.611 797.27 34.079 660.915 83.663 531.194Z" fill="#5D3F27"/>
</svg>
